# xmcd CD database file
#
# Track frame offsets:
#	150
#	13215
#	29665
#	40070
#	53532
#	66465
#	78422
#	92202
#	106425
#	122560
#	135442
#	145980
#	158075
#	174365
#	187847
#	202750
#	218267
#	231040
#	244547
#	257017
#	271172
#	284980
#	297650
#	312767
#
# Disc length: 4367 seconds
#
# Revision: 0
# Processed by: cddbd v1.5.2PL0 Copyright (c) Steve Scherf et al.
# Submitted via: CDex 1.70beta2
#
DISCID=54110d18
DTITLE=Dave Daffodil - On the road '88
DYEAR=1988
DGENRE=Jazz
TTITLE0=On the road 88
TTITLE1=Sambossa
TTITLE2=A taste of honey
TTITLE3=Jingle rag
TTITLE4=Mad Mambo
TTITLE5=Ain't she sweet
TTITLE6=One more samba
TTITLE7=Jogging jump
TTITLE8=Small talk
TTITLE9=Band Stand
TTITLE10=Sunny
TTITLE11=Daddy's comeback
TTITLE12=Sugar shake
TTITLE13=Swingin' folks
TTITLE14=The girl from Ipanema
TTITLE15=Freak
TTITLE16=Swing Injection
TTITLE17=Call me
TTITLE18=Front page
TTITLE19=Samba Gamba
TTITLE20=Steady
TTITLE21=Insert
TTITLE22=Southern roads
TTITLE23=Walkman
EXTD=YEAR: 1988
EXTT0=
EXTT1=
EXTT2=
EXTT3=
EXTT4=
EXTT5=
EXTT6=
EXTT7=
EXTT8=
EXTT9=
EXTT10=
EXTT11=
EXTT12=
EXTT13=
EXTT14=
EXTT15=
EXTT16=
EXTT17=
EXTT18=
EXTT19=
EXTT20=
EXTT21=
EXTT22=
EXTT23=
PLAYORDER=
